<svg id="Layer_1" data-name="Layer 1" xmlns="http://www.w3.org/2000/svg" viewBox="0 0 280 300"><defs><style>.cls-1{fill:#2e88c9;}.cls-2{fill:#eb2028;}.cls-3{fill:#f48220;}.cls-4{fill:#facb26;}.cls-5{fill:#a7ce3b;}.cls-6{fill:#45c6e7;}.cls-7{fill:#5d67a3;}.cls-8{fill:#ed202c;}.cls-11,.cls-9{fill:none;stroke-miterlimit:10;}.cls-9{stroke:#ed202c;stroke-width:3px;}.cls-10{fill:#6c7175;}.cls-11{stroke:#6c7175;stroke-width:2px;}</style></defs><title>JBoss Logo</title><path class="cls-1" d="M102.91,108.33a6,6,0,1,1-6-6A6.05,6.05,0,0,1,102.91,108.33Z"/><path class="cls-2" d="M129.32,189a11.43,11.43,0,1,1-11.43-11.42A11.43,11.43,0,0,1,129.32,189Z"/><path class="cls-3" d="M99.55,184.93a10.09,10.09,0,1,1-10.09-10.09A10.08,10.08,0,0,1,99.55,184.93Z"/><path class="cls-4" d="M76.31,166.46a9.08,9.08,0,1,1-9.08-9.07A9.08,9.08,0,0,1,76.31,166.46Z"/><path class="cls-5" d="M71.64,140.92a8.07,8.07,0,1,1-8.07-8.06A8.07,8.07,0,0,1,71.64,140.92Z"/><path class="cls-6" d="M83.41,118.74A6.72,6.72,0,1,1,76.69,112,6.72,6.72,0,0,1,83.41,118.74Z"/><path class="cls-7" d="M122.93,104.63a5,5,0,1,1-5-5A5,5,0,0,1,122.93,104.63Z"/><path class="cls-8" d="M116,149.5a17,17,0,0,1-.8,5.55,8.77,8.77,0,0,1-2.41,3.71,9.54,9.54,0,0,1-4,2.09,20.49,20.49,0,0,1-5.48.65,16.43,16.43,0,0,1-5.07-.71,10.45,10.45,0,0,1-3.74-2,8.7,8.7,0,0,1-2.31-3.25,11.17,11.17,0,0,1-.8-4.3v-1h7.33a6.75,6.75,0,0,0,1.09,4.15,4.11,4.11,0,0,0,3.5,1.43,6.28,6.28,0,0,0,2.57-.44,3.5,3.5,0,0,0,1.53-1.27,5.08,5.08,0,0,0,.71-2,16.22,16.22,0,0,0,.18-2.52V126.28H116Z"/><path class="cls-9" d="M116,149.5a17,17,0,0,1-.8,5.55,8.77,8.77,0,0,1-2.41,3.71,9.54,9.54,0,0,1-4,2.09,20.49,20.49,0,0,1-5.48.65,16.43,16.43,0,0,1-5.07-.71,10.45,10.45,0,0,1-3.74-2,8.7,8.7,0,0,1-2.31-3.25,11.17,11.17,0,0,1-.8-4.3v-1h7.33a6.75,6.75,0,0,0,1.09,4.15,4.11,4.11,0,0,0,3.5,1.43,6.28,6.28,0,0,0,2.57-.44,3.5,3.5,0,0,0,1.53-1.27,5.08,5.08,0,0,0,.71-2,16.22,16.22,0,0,0,.18-2.52V126.28H116Z"/><path class="cls-8" d="M147,150.7a8.69,8.69,0,0,1-3.76,7.55q-3.75,2.67-11.22,2.67H116.34V126.28h15.24a24.8,24.8,0,0,1,5.77.61,13.94,13.94,0,0,1,4.35,1.77,8.16,8.16,0,0,1,2.71,2.78,7.26,7.26,0,0,1,.94,3.67,7.16,7.16,0,0,1-1.44,4.47,10.14,10.14,0,0,1-4.38,3.06,11.49,11.49,0,0,1,3.28,1.19,8.87,8.87,0,0,1,2.31,1.82A6.48,6.48,0,0,1,146.5,148,8.32,8.32,0,0,1,147,150.7Zm-23-10.29h7.27a9.61,9.61,0,0,0,5-1,3.75,3.75,0,0,0,1.6-3.44,4.46,4.46,0,0,0-.37-1.89,3.18,3.18,0,0,0-1.2-1.33,6.41,6.41,0,0,0-2.15-.79,16.52,16.52,0,0,0-3.25-.27H124Zm0,15.1h7.56a10.76,10.76,0,0,0,5.7-1.19,4,4,0,0,0,1.87-3.64,5.31,5.31,0,0,0-.42-2.21,3.55,3.55,0,0,0-1.35-1.51,7.1,7.1,0,0,0-2.48-.87,22,22,0,0,0-3.76-.28H124Z"/><path class="cls-9" d="M147,150.7a8.69,8.69,0,0,1-3.76,7.55q-3.75,2.67-11.22,2.67H116.34V126.28h15.24a24.8,24.8,0,0,1,5.77.61,13.94,13.94,0,0,1,4.35,1.77,8.16,8.16,0,0,1,2.71,2.78,7.26,7.26,0,0,1,.94,3.67,7.16,7.16,0,0,1-1.44,4.47,10.14,10.14,0,0,1-4.38,3.06,11.49,11.49,0,0,1,3.28,1.19,8.87,8.87,0,0,1,2.31,1.82A6.48,6.48,0,0,1,146.5,148,8.32,8.32,0,0,1,147,150.7Zm-23-10.29h7.27a9.61,9.61,0,0,0,5-1,3.75,3.75,0,0,0,1.6-3.44,4.46,4.46,0,0,0-.37-1.89,3.18,3.18,0,0,0-1.2-1.33,6.41,6.41,0,0,0-2.15-.79,16.52,16.52,0,0,0-3.25-.27H124Zm0,15.1h7.56a10.76,10.76,0,0,0,5.7-1.19,4,4,0,0,0,1.87-3.64,5.31,5.31,0,0,0-.42-2.21,3.55,3.55,0,0,0-1.35-1.51,7.1,7.1,0,0,0-2.48-.87,22,22,0,0,0-3.76-.28H124Z"/><path class="cls-10" d="M160,135.29a14.9,14.9,0,0,1,5.14.84,10.44,10.44,0,0,1,3.93,2.51,11.2,11.2,0,0,1,2.51,4.11,18.48,18.48,0,0,1,0,11.27,11.2,11.2,0,0,1-2.51,4.11,10.59,10.59,0,0,1-3.93,2.52,14.66,14.66,0,0,1-5.14.85,15,15,0,0,1-5.19-.85,10.63,10.63,0,0,1-3.94-2.52,11.49,11.49,0,0,1-2.52-4.11,18.09,18.09,0,0,1,0-11.27,11.49,11.49,0,0,1,2.52-4.11,10.48,10.48,0,0,1,3.94-2.51A15.19,15.19,0,0,1,160,135.29Zm0,21.43a5.4,5.4,0,0,0,2.39-.52,5,5,0,0,0,1.86-1.53,7.38,7.38,0,0,0,1.17-2.59,14.31,14.31,0,0,0,.41-3.68,14.47,14.47,0,0,0-.41-3.7,7.35,7.35,0,0,0-1.17-2.6,5,5,0,0,0-1.86-1.54,5.54,5.54,0,0,0-2.39-.51,5.71,5.71,0,0,0-2.45.51,5,5,0,0,0-1.85,1.54,7.36,7.36,0,0,0-1.19,2.6,14,14,0,0,0-.43,3.7,13.82,13.82,0,0,0,.43,3.68,7.39,7.39,0,0,0,1.19,2.59,4.93,4.93,0,0,0,1.85,1.53A5.57,5.57,0,0,0,160,156.72Z"/><path class="cls-11" d="M160,135.29a14.9,14.9,0,0,1,5.14.84,10.44,10.44,0,0,1,3.93,2.51,11.2,11.2,0,0,1,2.51,4.11,18.48,18.48,0,0,1,0,11.27,11.2,11.2,0,0,1-2.51,4.11,10.59,10.59,0,0,1-3.93,2.52,14.66,14.66,0,0,1-5.14.85,15,15,0,0,1-5.19-.85,10.63,10.63,0,0,1-3.94-2.52,11.49,11.49,0,0,1-2.52-4.11,18.09,18.09,0,0,1,0-11.27,11.49,11.49,0,0,1,2.52-4.11,10.48,10.48,0,0,1,3.94-2.51A15.19,15.19,0,0,1,160,135.29Zm0,21.43a5.4,5.4,0,0,0,2.39-.52,5,5,0,0,0,1.86-1.53,7.38,7.38,0,0,0,1.17-2.59,14.31,14.31,0,0,0,.41-3.68,14.47,14.47,0,0,0-.41-3.7,7.35,7.35,0,0,0-1.17-2.6,5,5,0,0,0-1.86-1.54,5.54,5.54,0,0,0-2.39-.51,5.71,5.71,0,0,0-2.45.51,5,5,0,0,0-1.85,1.54,7.36,7.36,0,0,0-1.19,2.6,14,14,0,0,0-.43,3.7,13.82,13.82,0,0,0,.43,3.68,7.39,7.39,0,0,0,1.19,2.59,4.93,4.93,0,0,0,1.85,1.53A5.57,5.57,0,0,0,160,156.72Z"/><path class="cls-10" d="M183.21,161.5c-3.74,0-6.51-.67-8.32-2a7.84,7.84,0,0,1-3-6.06H178a4,4,0,0,0,1.3,3.08,5.94,5.94,0,0,0,3.9,1,5.78,5.78,0,0,0,3.49-.9,2.9,2.9,0,0,0,1.22-2.46,2.25,2.25,0,0,0-.32-1.25,2.59,2.59,0,0,0-1.05-.86,10.55,10.55,0,0,0-1.92-.7c-.79-.23-1.77-.49-2.93-.8-.8-.2-1.57-.41-2.32-.61s-1.45-.45-2.14-.72a10.81,10.81,0,0,1-1.86-1,5.94,5.94,0,0,1-1.48-1.3,5.67,5.67,0,0,1-1-1.78,7.41,7.41,0,0,1-.34-2.39,6.64,6.64,0,0,1,.69-3,6.86,6.86,0,0,1,2-2.39,9.79,9.79,0,0,1,3.19-1.56,15.25,15.25,0,0,1,4.3-.56q5.22,0,7.86,1.87a6.47,6.47,0,0,1,2.76,5.37h-6c-.11-2.15-1.59-3.22-4.46-3.22a5.86,5.86,0,0,0-3,.7,2.29,2.29,0,0,0-1.19,2.09,2.88,2.88,0,0,0,.2,1.14,1.87,1.87,0,0,0,.84.8,8.42,8.42,0,0,0,1.79.7c.77.22,1.8.48,3.08.79q2.35.58,4.14,1.2a11,11,0,0,1,3,1.49,5.47,5.47,0,0,1,1.76,2.11,7.53,7.53,0,0,1,.57,3.14,7.72,7.72,0,0,1-.65,3.22,6.68,6.68,0,0,1-2,2.54A10,10,0,0,1,188,160.9,16.8,16.8,0,0,1,183.21,161.5Z"/><path class="cls-10" d="M205.05,161.5c-3.74,0-6.51-.67-8.32-2a7.84,7.84,0,0,1-3-6.06h6.07a3.93,3.93,0,0,0,1.29,3.08,6,6,0,0,0,3.91,1,5.78,5.78,0,0,0,3.49-.9,2.9,2.9,0,0,0,1.22-2.46,2.25,2.25,0,0,0-.32-1.25,2.73,2.73,0,0,0-1-.86,10.55,10.55,0,0,0-1.92-.7c-.8-.23-1.77-.49-2.93-.8-.81-.2-1.58-.41-2.32-.61a22.37,22.37,0,0,1-2.14-.72,11.29,11.29,0,0,1-1.87-1,6.08,6.08,0,0,1-1.47-1.3,5.67,5.67,0,0,1-1-1.78,7.39,7.39,0,0,1-.35-2.39,6.64,6.64,0,0,1,.69-3,6.89,6.89,0,0,1,2-2.39,9.84,9.84,0,0,1,3.18-1.56,15.37,15.37,0,0,1,4.31-.56q5.22,0,7.85,1.87a6.5,6.5,0,0,1,2.77,5.37h-6c-.11-2.15-1.59-3.22-4.46-3.22a5.86,5.86,0,0,0-3,.7,2.27,2.27,0,0,0-1.19,2.09,2.71,2.71,0,0,0,.2,1.14,1.84,1.84,0,0,0,.83.8,8.77,8.77,0,0,0,1.8.7c.77.22,1.8.48,3.08.79,1.57.39,2.95.79,4.13,1.2a10.91,10.91,0,0,1,3,1.49,5.36,5.36,0,0,1,1.75,2.11,7.37,7.37,0,0,1,.58,3.14,7.88,7.88,0,0,1-.65,3.22,6.87,6.87,0,0,1-2,2.54,10.08,10.08,0,0,1-3.38,1.67A16.85,16.85,0,0,1,205.05,161.5Z"/><path class="cls-10" d="M215.69,125.76h-1.77v-.63h4.31v.63h-1.78v5.18h-.76Z"/><path class="cls-10" d="M223.62,128.39c-.05-.81-.1-1.79-.09-2.51h0c-.19.68-.44,1.4-.73,2.21l-1,2.82h-.57l-.94-2.77c-.27-.82-.51-1.57-.67-2.26h0c0,.72-.06,1.7-.11,2.57l-.16,2.49h-.71l.4-5.81h1l1,2.81c.25.72.44,1.36.59,2h0a19.19,19.19,0,0,1,.61-2l1-2.81h.95l.37,5.81h-.74Z"/></svg>