<svg xmlns="http://www.w3.org/2000/svg" viewBox="0 0 250 140"><g fill="none" stroke-width="2"><path stroke="#ea8d8f" d="M120.28 52.25h-9.75a.57.57 0 0 0-.57.58c.14 5.42 10.02 3.69 13.64 3.66a.93.93 0 0 1 .8.46l1.84 3.21q.32.56.97.56h3.76a.59.59 0 0 0 .5-.91q-6.94-10.9-13.7-21.32c-1.93-2.98-4.73-1.66-6.27.76q-6.54 10.23-12.95 20.37a.72.72 0 0 0 .66 1.1l3.95-.3q.4-.03.61-.37l10.84-17.25q.29-.46.58 0l5.48 8.74q.45.71-.39.71" vector-effect="non-scaling-stroke"/><path stroke="#f6b9ba" d="M216.55 42.608a2.97 2.71 92.3 0 0 2.828-2.86 2.97 2.71 92.3 0 0-2.589-3.076 2.97 2.71 92.3 0 0-2.827 2.86 2.97 2.71 92.3 0 0 2.589 3.076" vector-effect="non-scaling-stroke"/><path stroke="#ea8d8f" d="M67.629 48.128a11.03 11.03 0 0 0-11.05-11.01l-14.66.025a11.03 11.03 0 0 0-11.01 11.049l.002 1.44a11.03 11.03 0 0 0 11.05 11.01l14.66-.025a11.03 11.03 0 0 0 11.01-11.049l-.002-1.44M75.14 41.42l15.24-.11a.66.62 57.2 0 1 .36.09c3.87 2.27 3.2 7.36-1.49 7.35q-5.79-.01-11.3 0a.51.51 0 0 0-.34.89l12.4 10.81a1.2 1.19 65.5 0 0 .79.3h4.91a.57.57 0 0 0 .36-1.01l-7.34-5.96q-.6-.49.18-.53c11.92-.57 11.68-15.9.57-16.22q-6.76-.19-18.77.04-.46.01-.46.47V60q0 .68.68.7l3.19.07q.65.02.65-.64l-.06-18.28q0-.43.43-.43M136.56 59.64c4.59 1.91 11.86 1.17 16.81 1.07 2.38-.04 3.48-1.5 4.09-3.56q.18-.63-.47-.63c-5.71-.05-17.64 1.65-21.32-3.12-2.87-3.72-1.62-9.37 2.76-11.29 3.82-1.67 11.7-.87 16.28-.86a.67.67 0 0 0 .59-.35l1.72-3.09q.37-.68-.4-.7c-9.16-.28-20.79-1.85-25.1 5.18-3.86 6.31-1.92 14.45 5.04 17.35M162.05 60.77l20.28-.1q.62 0 .92-.54l1.53-2.67a.68.68 0 0 0-.59-1.02l-19.18.09a.52.51-90 0 1-.51-.52V37.48q0-.52-.52-.5l-3.24.07q-.86.02-.87.89l-.16 20.48a2.33 2.33 0 0 0 2.34 2.35M189.83 51.18q8.05-.41 16.12-.15c2.66.08 4.09-1.17 4.49-3.68q.1-.6-.51-.6h-20.16a.48.48 0 0 1-.44-.68c3.01-6.52 13.96-4.96 20.05-4.77a.8.78-75.1 0 0 .71-.42l1.62-3.09q.34-.64-.39-.68c-5.76-.29-17.14-1.25-22 2.05-7.42 5.02-6.4 17.22 2.19 20.54 5.11 1.98 13.82 1.07 18.4.74a1.02 1.02 0 0 0 .85-.57l1.44-2.85a.55.55 0 0 0-.52-.8c-8.51.54-19.43 2.22-22.15-4.56q-.18-.45.3-.48" vector-effect="non-scaling-stroke"/><path stroke="gray" d="M21.69 70.19q-.36.45-.14.96.16.35.55.35l205.97-.01a.4.39 1.5 0 0 .4-.37l.04-.85a.49.49 0 0 0-.49-.52H24.03q-.4 0-.77-.15-.6-.24-1.26-.03-.35.12-.31.62M116.4 85.57c1.17-6.32-7.42-5.03-10.96-4.74q-.47.04-.46.51l.07 13.38q0 .71.71.69c3.64-.12 12.37 1.25 11.16-5.28a1.21 1.2 14.7 0 0-.42-.71q-1.77-1.39-.33-3.32a1.42 1.4 69 0 0 .23-.53M164.842 80.982a.27.27 0 0 0-.27-.27l-2.08-.004a.27.27 0 0 0-.27.27l-.024 13.92a.27.27 0 0 0 .27.27l2.08.004a.27.27 0 0 0 .27-.27l.024-13.92M85.42 90.03q-1.45-3.83-1.92-8.06a2.26 2.26 0 0 0-4.51.13q-.19 3.48-1.4 6.56a.74.74 0 0 1-1.42-.17l-1.04-7.18a.62.61 86.3 0 0-.61-.54l-2.04-.03q-.53-.01-.41.51l2.92 12.73a1.86 1.86 0 0 0 3.62.03l2.15-8.74a.42.41 44.1 0 1 .8-.01l2.64 8.93a1.72 1.71 43.1 0 0 3.32-.11q.76-3.4 1.64-7.1c.37-1.56.14-3.62 1.48-5.42q.5-.68-.34-.73l-1.83-.11q-.79-.05-.92.73l-1.43 8.51a.36.36 0 0 1-.7.07M95.63 92.88a1.82 1.82 0 0 1 .24-3.63h5.35q.64 0 .7-.64l.11-1.02a.76.76 0 0 0-.76-.83L95 86.75q-.5-.01-.5-.5v-2.61a.62.61-.5 0 1 .61-.61l6.82-.09q.48 0 .66-.46.64-1.58-.57-1.7-3.56-.34-9.58.14-.48.04-.49.53l-.1 13.19a.61.6-90 0 0 .6.61h9.85q.57 0 .7-.55l.28-1.1a.58.57 4.2 0 0-.62-.71q-4.15.38-7.03-.01M122.47 93a.47.47 0 0 1-.47-.47V81.22a.47.47 0 0 0-.47-.47h-1.81a.47.47 0 0 0-.47.47v13.56a.47.47 0 0 0 .47.47h9.57a.47.47 0 0 0 .46-.59l-.35-1.31a.47.47 0 0 0-.45-.35h-6.48M137.535 95.376a7.39 6.83 91.9 0 0 7.071-7.16 7.39 6.83 91.9 0 0-6.581-7.612 7.39 6.83 91.9 0 0-7.071 7.16 7.39 6.83 91.9 0 0 6.581 7.612M156.9 91.54a1.33 1.33 0 0 1-1.15 1.38q-6.76.89-6.77-5.18c-.01-4.47 5.92-7.11 7.08-2.78a.66.66 0 0 0 1 .38l1.78-1.18a.66.65 53.4 0 0 .14-.96c-3.59-4.38-11-2.92-12.25 2.26-3.07 12.68 15.44 12.71 12.24 3.29q-.14-.41-.58-.46-1.85-.17-3.67-.29-.93-.07-1.37.29-.73.59-.39 1.74a.63.62-20.3 0 0 .86.39q2.96-1.35 3.08 1.12M177.77 90.75a.86.86 0 0 0-1.07.34q-1.73 2.81-4.24 1.66c-6.45-2.93-.24-15.22 4.39-7.45a.69.69 0 0 0 1.15.05l1.01-1.4q.41-.57-.11-1.04c-5.64-5.12-12.63-.85-11.61 6.35.69 4.83 5.05 7.53 9.62 5.42q1.56-.71 2.03-1.76.64-1.41-1.17-2.17" vector-effect="non-scaling-stroke"/><path stroke="#ea8d8f" d="M63.11 48.484a7.09 7.09 0 0 0-7.077-7.102l-13.5-.024a7.09 7.09 0 0 0-7.102 7.078l-.002.8a7.09 7.09 0 0 0 7.078 7.102l13.5.024a7.09 7.09 0 0 0 7.102-7.078l.002-.8" vector-effect="non-scaling-stroke"/><path stroke="gray" d="M107.91 83.69v2.46a.86.86 0 0 0 .86.86h1.88a3.38 1.85 0 0 0 3.38-1.85v-.48a3.38 1.85 0 0 0-3.38-1.85h-1.88a.86.86 0 0 0-.86.86M114.38 90.61a1.32 1.32 0 0 0-1.27-1.367l-3.917-.143a1.32 1.32 0 0 0-1.368 1.27l-.046 1.26a1.32 1.32 0 0 0 1.27 1.367l3.918.144a1.32 1.32 0 0 0 1.368-1.271l.046-1.26M137.55 93.093a5.13 4.22 92.9 0 0 4.475-4.91 5.13 4.22 92.9 0 0-3.956-5.336 5.13 4.22 92.9 0 0-4.474 4.91 5.13 4.22 92.9 0 0 3.956 5.336" vector-effect="non-scaling-stroke"/></g><path fill="#fff" d="M0 0h250v140H0V0Zm120.28 52.25h-9.75a.57.57 0 0 0-.57.58c.14 5.42 10.02 3.69 13.64 3.66a.93.93 0 0 1 .8.46l1.84 3.21q.32.56.97.56h3.76a.59.59 0 0 0 .5-.91q-6.94-10.9-13.7-21.32c-1.93-2.98-4.73-1.66-6.27.76q-6.54 10.23-12.95 20.37a.72.72 0 0 0 .66 1.1l3.95-.3q.4-.03.61-.37l10.84-17.25q.29-.46.58 0l5.48 8.74q.45.71-.39.71Zm96.27-9.642a2.97 2.71 92.3 0 0 2.828-2.86 2.97 2.71 92.3 0 0-2.589-3.076 2.97 2.71 92.3 0 0-2.827 2.86 2.97 2.71 92.3 0 0 2.589 3.076ZM67.63 48.128a11.03 11.03 0 0 0-11.05-11.01l-14.66.025a11.03 11.03 0 0 0-11.01 11.049l.002 1.44a11.03 11.03 0 0 0 11.05 11.01l14.66-.025a11.03 11.03 0 0 0 11.01-11.049l-.002-1.44Zm7.511-6.708 15.24-.11a.66.62 57.2 0 1 .36.09c3.87 2.27 3.2 7.36-1.49 7.35q-5.79-.01-11.3 0a.51.51 0 0 0-.34.89l12.4 10.81a1.2 1.19 65.5 0 0 .79.3h4.91a.57.57 0 0 0 .36-1.01l-7.34-5.96q-.6-.49.18-.53c11.92-.57 11.68-15.9.57-16.22q-6.76-.19-18.77.04-.46.01-.46.47V60q0 .68.68.7l3.19.07q.65.02.65-.64l-.06-18.28q0-.43.43-.43Zm61.42 18.22c4.59 1.91 11.86 1.17 16.81 1.07 2.38-.04 3.48-1.5 4.09-3.56q.18-.63-.47-.63c-5.71-.05-17.64 1.65-21.32-3.12-2.87-3.72-1.62-9.37 2.76-11.29 3.82-1.67 11.7-.87 16.28-.86a.67.67 0 0 0 .59-.35l1.72-3.09q.37-.68-.4-.7c-9.16-.28-20.79-1.85-25.1 5.18-3.86 6.31-1.92 14.45 5.04 17.35Zm25.49 1.13 20.28-.1q.62 0 .92-.54l1.53-2.67a.68.68 0 0 0-.59-1.02l-19.18.09a.52.51-90 0 1-.51-.52V37.48q0-.52-.52-.5l-3.24.07q-.86.02-.87.89l-.16 20.48a2.33 2.33 0 0 0 2.34 2.35Zm27.78-9.59q8.05-.41 16.12-.15c2.66.08 4.09-1.17 4.49-3.68q.1-.6-.51-.6h-20.16a.48.48 0 0 1-.44-.68c3.01-6.52 13.96-4.96 20.05-4.77a.8.78-75.1 0 0 .71-.42l1.62-3.09q.34-.64-.39-.68c-5.76-.29-17.14-1.25-22 2.05-7.42 5.02-6.4 17.22 2.19 20.54 5.11 1.98 13.82 1.07 18.4.74a1.02 1.02 0 0 0 .85-.57l1.44-2.85a.55.55 0 0 0-.52-.8c-8.51.54-19.43 2.22-22.15-4.56q-.18-.45.3-.48ZM21.69 70.19q-.36.45-.14.96.16.35.55.35l205.97-.01a.4.39 1.5 0 0 .4-.37l.04-.85a.49.49 0 0 0-.49-.52H24.03q-.4 0-.77-.15-.6-.24-1.26-.03-.35.12-.31.62Zm94.71 15.38c1.17-6.32-7.42-5.03-10.96-4.74q-.47.04-.46.51l.07 13.38q0 .71.71.69c3.64-.12 12.37 1.25 11.16-5.28a1.21 1.2 14.7 0 0-.42-.71q-1.77-1.39-.33-3.32a1.42 1.4 69 0 0 .23-.53Zm48.442-4.588a.27.27 0 0 0-.27-.27l-2.08-.004a.27.27 0 0 0-.27.27l-.024 13.92a.27.27 0 0 0 .27.27l2.08.004a.27.27 0 0 0 .27-.27l.024-13.92ZM85.42 90.03q-1.45-3.83-1.92-8.06a2.26 2.26 0 0 0-4.51.13q-.19 3.48-1.4 6.56a.74.74 0 0 1-1.42-.17l-1.04-7.18a.62.61 86.3 0 0-.61-.54l-2.04-.03q-.53-.01-.41.51l2.92 12.73a1.86 1.86 0 0 0 3.62.03l2.15-8.74a.42.41 44.1 0 1 .8-.01l2.64 8.93a1.72 1.71 43.1 0 0 3.32-.11q.76-3.4 1.64-7.1c.37-1.56.14-3.62 1.48-5.42q.5-.68-.34-.73l-1.83-.11q-.79-.05-.92.73l-1.43 8.51a.36.36 0 0 1-.7.07Zm10.21 2.85a1.82 1.82 0 0 1 .24-3.63h5.35q.64 0 .7-.64l.11-1.02a.76.76 0 0 0-.76-.83L95 86.75q-.5-.01-.5-.5v-2.61a.62.61-.5 0 1 .61-.61l6.82-.09q.48 0 .66-.46.64-1.58-.57-1.7-3.56-.34-9.58.14-.48.04-.49.53l-.1 13.19a.61.6-90 0 0 .6.61h9.85q.57 0 .7-.55l.28-1.1a.58.57 4.2 0 0-.62-.71q-4.15.38-7.03-.01Zm26.84.12a.47.47 0 0 1-.47-.47V81.22a.47.47 0 0 0-.47-.47h-1.81a.47.47 0 0 0-.47.47v13.56a.47.47 0 0 0 .47.47h9.57a.47.47 0 0 0 .46-.59l-.35-1.31a.47.47 0 0 0-.45-.35h-6.48Zm15.065 2.376a7.39 6.83 91.9 0 0 7.071-7.16 7.39 6.83 91.9 0 0-6.581-7.612 7.39 6.83 91.9 0 0-7.071 7.16 7.39 6.83 91.9 0 0 6.581 7.612ZM156.9 91.54a1.33 1.33 0 0 1-1.15 1.38q-6.76.89-6.77-5.18c-.01-4.47 5.92-7.11 7.08-2.78a.66.66 0 0 0 1 .38l1.78-1.18a.66.65 53.4 0 0 .14-.96c-3.59-4.38-11-2.92-12.25 2.26-3.07 12.68 15.44 12.71 12.24 3.29q-.14-.41-.58-.46-1.85-.17-3.67-.29-.93-.07-1.37.29-.73.59-.39 1.74a.63.62-20.3 0 0 .86.39q2.96-1.35 3.08 1.12Zm20.87-.79a.86.86 0 0 0-1.07.34q-1.73 2.81-4.24 1.66c-6.45-2.93-.24-15.22 4.39-7.45a.69.69 0 0 0 1.15.05l1.01-1.4q.41-.57-.11-1.04c-5.64-5.12-12.63-.85-11.61 6.35.69 4.83 5.05 7.53 9.62 5.42q1.56-.71 2.03-1.76.64-1.41-1.17-2.17Z"/><path fill="#d51b1e" d="m120.67 51.54-5.48-8.74q-.29-.46-.58 0l-10.84 17.25q-.21.34-.61.37l-3.95.3a.72.72 0 0 1-.66-1.1q6.41-10.14 12.95-20.37c1.54-2.42 4.34-3.74 6.27-.76q6.76 10.42 13.7 21.32a.59.59 0 0 1-.5.91h-3.76q-.65 0-.97-.56l-1.84-3.21a.93.93 0 0 0-.8-.46c-3.62.03-13.5 1.76-13.64-3.66a.57.57 0 0 1 .57-.58h9.75q.84 0 .39-.71Z"/><ellipse fill="#ed7375" rx="2.97" ry="2.71" transform="rotate(92.3 89.295 123.891)"/><path fill="#d51b1e" d="M67.631 49.568a11.03 11.03 0 0 1-11.01 11.05l-14.66.025a11.03 11.03 0 0 1-11.05-11.011l-.002-1.44a11.03 11.03 0 0 1 11.01-11.05l14.66-.025a11.03 11.03 0 0 1 11.05 11.011l.002 1.44Zm-4.52-1.084a7.09 7.09 0 0 0-7.078-7.102l-13.5-.024a7.09 7.09 0 0 0-7.102 7.078l-.002.8a7.09 7.09 0 0 0 7.078 7.102l13.5.024a7.09 7.09 0 0 0 7.102-7.078l.002-.8ZM74.71 41.85l.06 18.28q0 .66-.65.64l-3.19-.07q-.68-.02-.68-.7V37.54q0-.46.46-.47 12.01-.23 18.77-.04c11.11.32 11.35 15.65-.57 16.22q-.78.04-.18.53l7.34 5.96a.57.57 0 0 1-.36 1.01H90.8a1.2 1.19 65.5 0 1-.79-.3l-12.4-10.81a.51.51 0 0 1 .34-.89q5.51-.01 11.3 0c4.69.01 5.36-5.08 1.49-7.35a.66.62 57.2 0 0-.36-.09l-15.24.11q-.43 0-.43.43ZM136.56 59.64c-6.96-2.9-8.9-11.04-5.04-17.35 4.31-7.03 15.94-5.46 25.1-5.18q.77.02.4.7l-1.72 3.09a.67.67 0 0 1-.59.35c-4.58-.01-12.46-.81-16.28.86-4.38 1.92-5.63 7.57-2.76 11.29 3.68 4.77 15.61 3.07 21.32 3.12q.65 0 .47.63c-.61 2.06-1.71 3.52-4.09 3.56-4.95.1-12.22.84-16.81-1.07ZM162.05 60.77a2.33 2.33 0 0 1-2.34-2.35l.16-20.48q.01-.87.87-.89l3.24-.07q.52-.02.52.5v18.53a.52.51-90 0 0 .51.52l19.18-.09a.68.68 0 0 1 .59 1.02l-1.53 2.67q-.3.54-.92.54l-20.28.1ZM189.53 51.66c2.72 6.78 13.64 5.1 22.15 4.56a.55.55 0 0 1 .52.8l-1.44 2.85a1.02 1.02 0 0 1-.85.57c-4.58.33-13.29 1.24-18.4-.74-8.59-3.32-9.61-15.52-2.19-20.54 4.86-3.3 16.24-2.34 22-2.05q.73.04.39.68l-1.62 3.09a.8.78-75.1 0 1-.71.42c-6.09-.19-17.04-1.75-20.05 4.77a.48.48 0 0 0 .44.68h20.16q.61 0 .51.6c-.4 2.51-1.83 3.76-4.49 3.68q-8.07-.26-16.12.15-.48.03-.3.48Z"/><rect width="27.68" height="14.98" x="-13.84" y="-7.49" fill="#fff" rx="7.09" transform="rotate(.1 -27970.076 28254.053)"/><path d="M21.69 70.19q-.04-.5.31-.62.66-.21 1.26.03.37.15.77.15h203.99a.49.49 0 0 1 .49.52l-.04.85a.4.39 1.5 0 1-.4.37L22.1 71.5q-.39 0-.55-.35-.22-.51.14-.96ZM105.44 80.83c3.54-.29 12.13-1.58 10.96 4.74a1.42 1.4 69 0 1-.23.53q-1.44 1.93.33 3.32a1.21 1.2 14.7 0 1 .42.71c1.21 6.53-7.52 5.16-11.16 5.28q-.71.02-.71-.69l-.07-13.38q-.01-.47.46-.51Zm2.47 2.86v2.46a.86.86 0 0 0 .86.86h1.88a3.38 1.85 0 0 0 3.38-1.85v-.48a3.38 1.85 0 0 0-3.38-1.85h-1.88a.86.86 0 0 0-.86.86Zm6.47 6.92a1.32 1.32 0 0 0-1.27-1.367l-3.917-.143a1.32 1.32 0 0 0-1.368 1.27l-.046 1.26a1.32 1.32 0 0 0 1.27 1.367l3.918.144a1.32 1.32 0 0 0 1.368-1.271l.046-1.26Z"/><rect width="2.62" height="14.46" x="-1.31" y="-7.23" rx=".27" transform="rotate(.1 -50304.136 93734.005)"/><path d="M85.42 90.03a.36.36 0 0 0 .7-.07l1.43-8.51q.13-.78.92-.73l1.83.11q.84.05.34.73c-1.34 1.8-1.11 3.86-1.48 5.42q-.88 3.7-1.64 7.1a1.72 1.71 43.1 0 1-3.32.11l-2.64-8.93a.42.41 44.1 0 0-.8.01l-2.15 8.74a1.86 1.86 0 0 1-3.62-.03l-2.92-12.73q-.12-.52.41-.51l2.04.03a.62.61 86.3 0 1 .61.54l1.04 7.18a.74.74 0 0 0 1.42.17q1.21-3.08 1.4-6.56a2.26 2.26 0 0 1 4.51-.13q.47 4.23 1.92 8.06ZM95.63 92.88q2.88.39 7.03.01a.58.57 4.2 0 1 .62.71l-.28 1.1q-.13.55-.7.55h-9.85a.61.6-90 0 1-.6-.61l.1-13.19q.01-.49.49-.53 6.02-.48 9.58-.14 1.21.12.57 1.7-.18.46-.66.46l-6.82.09a.62.61-.5 0 0-.61.61v2.61q0 .49.5.5l6.27.01a.76.76 0 0 1 .76.83l-.11 1.02q-.06.64-.7.64h-5.35a1.82 1.82 0 0 0-.24 3.63ZM122.47 93h6.48a.47.47 0 0 1 .45.35l.35 1.31a.47.47 0 0 1-.46.59h-9.57a.47.47 0 0 1-.47-.47V81.22a.47.47 0 0 1 .47-.47h1.81a.47.47 0 0 1 .47.47v11.31a.47.47 0 0 0 .47.47Z"/><path d="M137.535 95.376a7.39 6.83 91.9 0 1-6.581-7.612 7.39 6.83 91.9 0 1 7.071-7.16 7.39 6.83 91.9 0 1 6.581 7.612 7.39 6.83 91.9 0 1-7.071 7.16Zm.016-2.283a5.13 4.22 92.9 0 0 4.474-4.91 5.13 4.22 92.9 0 0-3.956-5.336 5.13 4.22 92.9 0 0-4.474 4.91 5.13 4.22 92.9 0 0 3.956 5.336Z"/><path d="M156.9 91.54q-.12-2.47-3.08-1.12a.63.62-20.3 0 1-.86-.39q-.34-1.15.39-1.74.44-.36 1.37-.29 1.82.12 3.67.29.44.05.58.46c3.2 9.42-15.31 9.39-12.24-3.29 1.25-5.18 8.66-6.64 12.25-2.26a.66.65 53.4 0 1-.14.96l-1.78 1.18a.66.66 0 0 1-1-.38c-1.16-4.33-7.09-1.69-7.08 2.78q.01 6.07 6.77 5.18a1.33 1.33 0 0 0 1.15-1.38ZM177.77 90.75q1.81.76 1.17 2.17-.47 1.05-2.03 1.76c-4.57 2.11-8.93-.59-9.62-5.42-1.02-7.2 5.97-11.47 11.61-6.35q.52.47.11 1.04l-1.01 1.4a.69.69 0 0 1-1.15-.05c-4.63-7.77-10.84 4.52-4.39 7.45q2.51 1.15 4.24-1.66a.86.86 0 0 1 1.07-.34Z"/><path fill="#fff" d="M107.91 83.69a.86.86 0 0 1 .86-.86h1.88a3.38 1.85 0 0 1 3.38 1.85v.48a3.38 1.85 0 0 1-3.38 1.85h-1.88a.86.86 0 0 1-.86-.86v-2.46Z"/><ellipse fill="#fff" rx="5.13" ry="4.22" transform="rotate(92.9 27.092 109.488)"/><rect width="6.56" height="3.9" x="-3.28" y="-1.95" fill="#fff" rx="1.32" transform="rotate(2.1 -2430.273 3075.895)"/></svg>