<svg xmlns="http://www.w3.org/2000/svg" viewBox="0 0 512 512"><g fill="none" stroke="#af98ca" stroke-width="2"><path d="M476.23 254.65A219.61 219.61 0 0 0 256.62 35.04 219.61 219.61 0 0 0 37.01 254.65a219.61 219.61 0 0 0 219.61 219.61 219.61 219.61 0 0 0 219.61-219.61" vector-effect="non-scaling-stroke"/><path d="M294.99 120.5c-4.34-14.32-24.97-74.06-49.98-50.94-11.98 11.08-19.74 29.33-24.82 44.94q-10.4 31.97-14.38 64.26-.06.53.47.48 50.36-4.14 100.73 0 .54.05.47-.49-3.82-29.64-12.49-58.25M217.49 68.14C143.01 84.27 87.45 140.29 70.11 214.62q-.39 1.69 1.08.79c32.7-19.94 74.27-29.1 112.06-33.54a.67.66-.6 0 0 .57-.58c4.43-38.24 13.76-79.5 33.97-112.73q.34-.56-.3-.42M443.15 215.39c-16.18-74.25-72.76-130.74-147.02-147.24q-1.04-.23-.48.67c20.11 32.68 29.38 74.73 33.8 112.44a.61.6 89.3 0 0 .53.53c39.04 4.72 79.53 14.34 112.9 33.79q.36.21.27-.19M204.02 308.24q52.73 4.58 105.47-.01a.8.8 0 0 0 .72-.72q4.6-52.87-.02-105.74-.05-.63-.68-.68-52.98-4.66-105.96.01a.53.53 0 0 0-.48.48q-4.63 52.84-.03 105.68a1.08 1.08 0 0 0 .98.98M447.06 255.31c.64-16.15-29.43-29.36-41.67-33.89-23.92-8.87-47.83-14.05-73.04-17.76a.31.31 0 0 0-.35.33q4.29 50.65.02 101.29a.26.26 0 0 0 .29.27q30.52-3.93 60.01-12.94c14.07-4.3 54.02-19.24 54.74-37.3M75.64 270.37c15.59 12.38 35.27 19.74 54.69 25.02q24.96 6.78 50.58 10.2a.3.3 0 0 0 .34-.33q-4.28-50.48-.01-100.95.04-.49-.44-.43-36.52 4.42-71.13 16.72c-16.06 5.71-63.32 26.53-34.03 49.77M70.02 293.54c16.12 74.47 73.17 131.76 147.73 147.72a.15.15 0 0 0 .16-.22c-20.32-33.35-29.51-74.54-34.13-112.93q-.06-.54-.59-.6c-38.3-4.76-79.63-13.61-112.83-34.21a.23.23 0 0 0-.34.24M329.52 327.96c-4.96 39.07-13.78 79.2-34.12 113.05a.19.19 0 0 0 .2.28c74.39-16.31 131.25-72.62 147.48-147.52q.1-.45-.29-.21c-33.67 20.14-74.28 29.33-112.81 33.94a.53.53 0 0 0-.46.46M221.06 397.23c4.22 12.45 22.42 59.05 43.32 45.4 14.96-9.76 24.97-35 29.92-51.62q9.62-32.31 13.23-60.43.08-.58-.51-.53-50.38 4.28-100.75 0-.54-.04-.47.49 4.22 34.13 15.26 66.69" vector-effect="non-scaling-stroke"/></g><path fill="#5e3095" d="M509.95 254.66A253.34 253.34 0 0 1 256.61 508 253.34 253.34 0 0 1 3.27 254.66 253.34 253.34 0 0 1 256.61 1.32a253.34 253.34 0 0 1 253.34 253.34Zm-33.72-.01A219.61 219.61 0 0 0 256.62 35.04 219.61 219.61 0 0 0 37.01 254.65a219.61 219.61 0 0 0 219.61 219.61 219.61 219.61 0 0 0 219.61-219.61Z"/><path fill="#fff" d="M476.23 254.65a219.61 219.61 0 0 1-219.61 219.61A219.61 219.61 0 0 1 37.01 254.65 219.61 219.61 0 0 1 256.62 35.04a219.61 219.61 0 0 1 219.61 219.61ZM294.99 120.5c-4.34-14.32-24.97-74.06-49.98-50.94-11.98 11.08-19.74 29.33-24.82 44.94q-10.4 31.97-14.38 64.26-.06.53.47.48 50.36-4.14 100.73 0 .54.05.47-.49-3.82-29.64-12.49-58.25Zm-77.5-52.36C143.01 84.27 87.45 140.29 70.11 214.62q-.39 1.69 1.08.79c32.7-19.94 74.27-29.1 112.06-33.54a.67.66-.6 0 0 .57-.58c4.43-38.24 13.76-79.5 33.97-112.73q.34-.56-.3-.42Zm225.66 147.25c-16.18-74.25-72.76-130.74-147.02-147.24q-1.04-.23-.48.67c20.11 32.68 29.38 74.73 33.8 112.44a.61.6 89.3 0 0 .53.53c39.04 4.72 79.53 14.34 112.9 33.79q.36.21.27-.19Zm-239.13 92.85q52.73 4.58 105.47-.01a.8.8 0 0 0 .72-.72q4.6-52.87-.02-105.74-.05-.63-.68-.68-52.98-4.66-105.96.01a.53.53 0 0 0-.48.48q-4.63 52.84-.03 105.68a1.08 1.08 0 0 0 .98.98Zm243.04-52.93c.64-16.15-29.43-29.36-41.67-33.89-23.92-8.87-47.83-14.05-73.04-17.76a.31.31 0 0 0-.35.33q4.29 50.65.02 101.29a.26.26 0 0 0 .29.27q30.52-3.93 60.01-12.94c14.07-4.3 54.02-19.24 54.74-37.3ZM75.64 270.37c15.59 12.38 35.27 19.74 54.69 25.02q24.96 6.78 50.58 10.2a.3.3 0 0 0 .34-.33q-4.28-50.48-.01-100.95.04-.49-.44-.43-36.52 4.42-71.13 16.72c-16.06 5.71-63.32 26.53-34.03 49.77Zm-5.62 23.17c16.12 74.47 73.17 131.76 147.73 147.72a.15.15 0 0 0 .16-.22c-20.32-33.35-29.51-74.54-34.13-112.93q-.06-.54-.59-.6c-38.3-4.76-79.63-13.61-112.83-34.21a.23.23 0 0 0-.34.24Zm259.5 34.42c-4.96 39.07-13.78 79.2-34.12 113.05a.19.19 0 0 0 .2.28c74.39-16.31 131.25-72.62 147.48-147.52q.1-.45-.29-.21c-33.67 20.14-74.28 29.33-112.81 33.94a.53.53 0 0 0-.46.46Zm-108.46 69.27c4.22 12.45 22.42 59.05 43.32 45.4 14.96-9.76 24.97-35 29.92-51.62q9.62-32.31 13.23-60.43.08-.58-.51-.53-50.38 4.28-100.75 0-.54-.04-.47.49 4.22 34.13 15.26 66.69Z"/><path fill="#5e3095" d="M245.01 69.56c25.01-23.12 45.64 36.62 49.98 50.94q8.67 28.61 12.49 58.25.07.54-.47.49-50.37-4.14-100.73 0-.53.05-.47-.48 3.98-32.29 14.38-64.26c5.08-15.61 12.84-33.86 24.82-44.94ZM70.11 214.62c17.34-74.33 72.9-130.35 147.38-146.48q.64-.14.3.42c-20.21 33.23-29.54 74.49-33.97 112.73a.67.66-.6 0 1-.57.58c-37.79 4.44-79.36 13.6-112.06 33.54q-1.47.9-1.08-.79ZM296.13 68.15c74.26 16.5 130.84 72.99 147.02 147.24q.09.4-.27.19c-33.37-19.45-73.86-29.07-112.9-33.79a.61.6 89.3 0 1-.53-.53c-4.42-37.71-13.69-79.76-33.8-112.44q-.56-.9.48-.67ZM204.02 308.24a1.08 1.08 0 0 1-.98-.98q-4.6-52.84.03-105.68a.53.53 0 0 1 .48-.48q52.98-4.67 105.96-.01.63.05.68.68 4.62 52.87.02 105.74a.8.8 0 0 1-.72.72q-52.74 4.59-105.47.01ZM447.06 255.31c-.72 18.06-40.67 33-54.74 37.3q-29.49 9.01-60.01 12.94a.26.26 0 0 1-.29-.27q4.27-50.64-.02-101.29a.31.31 0 0 1 .35-.33c25.21 3.71 49.12 8.89 73.04 17.76 12.24 4.53 42.31 17.74 41.67 33.89ZM75.64 270.37c-29.29-23.24 17.97-44.06 34.03-49.77q34.61-12.3 71.13-16.72.48-.06.44.43-4.27 50.47.01 100.95a.3.3 0 0 1-.34.33q-25.62-3.42-50.58-10.2c-19.42-5.28-39.1-12.64-54.69-25.02ZM217.75 441.26C143.19 425.3 86.14 368.01 70.02 293.54a.23.23 0 0 1 .34-.24c33.2 20.6 74.53 29.45 112.83 34.21q.53.06.59.6c4.62 38.39 13.81 79.58 34.13 112.93a.15.15 0 0 1-.16.22ZM329.52 327.96a.53.53 0 0 1 .46-.46c38.53-4.61 79.14-13.8 112.81-33.94q.39-.24.29.21c-16.23 74.9-73.09 131.21-147.48 147.52a.19.19 0 0 1-.2-.28c20.34-33.85 29.16-73.98 34.12-113.05ZM264.38 442.63c-20.9 13.65-39.1-32.95-43.32-45.4q-11.04-32.56-15.26-66.69-.07-.53.47-.49 50.37 4.28 100.75 0 .59-.05.51.53-3.61 28.12-13.23 60.43c-4.95 16.62-14.96 41.86-29.92 51.62Z"/></svg>